# xmcd
#
# Track frame offsets:
#	150
#	18987
#	37040
#	52575
#	73250
#	98272
#	113527
#	130497
#	149745
#	166105
#	184700
#	201367
#	214815
#
# Disc length: 3019 seconds
#
# Revision: 2
# Processed by: cddbd v1.4PL0 Copyright (c) Steve Scherf et al.
# Submitted via: CDmax 1.9
#
DISCID=b50bc90d
DTITLE=5 Chinese Brothers - Stone Soup
DYEAR=1995
DGENRE=Country
TTITLE0=The Avalanche Song
TTITLE1=Nothing But Time
TTITLE2=A Lot Of Nights
TTITLE3=My Friend
TTITLE4=Like A Mole In The Ground
TTITLE5=Trust Me
TTITLE6=Mr. Williams
TTITLE7=Amazing Delores
TTITLE8=You Are Where You Want To Be
TTITLE9=Couldn't Fall In Love
TTITLE10=Pit Stop
TTITLE11=Walk Away
TTITLE12=Faith In Something Bigger
EXTD=
EXTT0=
EXTT1=
EXTT2=
EXTT3=
EXTT4=
EXTT5=
EXTT6=
EXTT7=
EXTT8=
EXTT9=
EXTT10=
EXTT11=
EXTT12=
PLAYORDER=
